<?xml version="1.0" encoding="UTF-8" standalone="no"?>
<!-- Created with Inkscape (http://www.inkscape.org/) -->

<svg
   xmlns:dc="http://purl.org/dc/elements/1.1/"
   xmlns:cc="http://creativecommons.org/ns#"
   xmlns:rdf="http://www.w3.org/1999/02/22-rdf-syntax-ns#"
   xmlns:svg="http://www.w3.org/2000/svg"
   xmlns="http://www.w3.org/2000/svg"
   xmlns:sodipodi="http://sodipodi.sourceforge.net/DTD/sodipodi-0.dtd"
   xmlns:inkscape="http://www.inkscape.org/namespaces/inkscape"
   width="200mm"
   height="200mm"
   viewBox="0 0 200 200"
   version="1.1"
   id="svg8"
   inkscape:version="0.92.4 (unknown)"
   sodipodi:docname="logo.svg">
  <defs
     id="defs2" />
  <sodipodi:namedview
     id="base"
     pagecolor="#ffffff"
     bordercolor="#666666"
     borderopacity="1.0"
     inkscape:pageopacity="0.0"
     inkscape:pageshadow="2"
     inkscape:zoom="0.35"
     inkscape:cx="344.64362"
     inkscape:cy="329.57707"
     inkscape:document-units="mm"
     inkscape:current-layer="layer1"
     showgrid="false"
     inkscape:window-width="1920"
     inkscape:window-height="1024"
     inkscape:window-x="0"
     inkscape:window-y="27"
     inkscape:window-maximized="1"
     inkscape:snap-object-midpoints="false"
     fit-margin-top="0"
     fit-margin-left="0"
     fit-margin-right="0"
     fit-margin-bottom="0" />
  <metadata
     id="metadata5">
    <rdf:RDF>
      <cc:Work
         rdf:about="">
        <dc:format>image/svg+xml</dc:format>
        <dc:type
           rdf:resource="http://purl.org/dc/dcmitype/StillImage" />
        <dc:title></dc:title>
      </cc:Work>
    </rdf:RDF>
  </metadata>
  <g
     inkscape:label="Layer 1"
     inkscape:groupmode="layer"
     id="layer1"
     transform="translate(4.375922e-7,-96.999995)">
    <g
       id="g831">
      <g
         id="g825">
        <path
           sodipodi:type="star"
           style="fill:#f1a208;fill-opacity:1;stroke-width:0.26458332"
           id="path3761"
           sodipodi:sides="7"
           sodipodi:cx="56.04697"
           sodipodi:cy="115.31601"
           sodipodi:r1="38.656178"
           sodipodi:r2="32.763168"
           sodipodi:arg1="1.1220297"
           sodipodi:arg2="1.5708287"
           inkscape:flatsided="true"
           inkscape:rounded="0.1"
           inkscape:randomized="0"
           d="m 72.818131,150.14456 c -3.022308,1.45535 -30.522359,1.45446 -33.544573,-0.001 -3.022215,-1.45554 -20.167521,-22.9565 -20.913852,-26.22688 -0.746331,-3.27038 5.373872,-30.080747 7.465427,-32.7033 2.091555,-2.622553 26.86863,-14.553576 30.223087,-14.553468 3.354457,1.08e-4 28.130761,11.932734 30.222146,14.555422 2.091385,2.622688 8.209855,29.433456 7.463313,32.703786 -0.746543,3.27033 -17.893239,24.77018 -20.915548,26.22552 z"
           inkscape:transform-center-x="0.52735394"
           inkscape:transform-center-y="-4.3069991"
           transform="matrix(2.649026,0,0,2.6818361,-48.469212,-108.58911)" />
        <path
           style="fill:#000000;fill-opacity:1;stroke-width:0.26458332"
           id="path4880"
           d="m 29.237178,169.48929 c 0.329267,0.22082 0.593125,0.69997 0.987801,0.66245 0.631021,-0.06 1.102788,-0.62611 1.667089,-0.91481 0.822225,-0.42067 1.626217,-0.88917 2.491285,-1.21269 0.927423,-0.34685 2.04293,-0.23583 2.863509,-0.78996 2.591765,-3.22738 1.063942,-1.99649 4.480433,-3.81706 1.883449,-0.82646 3.218156,-1.45373 5.125648,-2.14296 0.839372,-0.30328 1.727319,-0.47632 2.54208,-0.84059 0.787024,-0.35187 1.457121,-0.93093 2.237885,-1.29648 2.311757,-1.08235 2.522826,-0.85509 5.131477,-1.07411 1.156928,-0.22579 2.308167,-0.48297 3.470781,-0.67737 1.245542,-0.20826 2.489702,-0.58797 3.751215,-0.53022 4.109378,0.18812 3.934081,1.7727 8.123533,1.11964 14.633041,-2.28101 -6.893131,-1.09617 7.997698,-1.61054 2.849899,0.078 5.399215,-1.46443 8.16905,-1.75819 1.431068,-0.15178 2.882061,0.003 4.315227,0.13308 1.412108,0.12856 2.788878,0.71414 4.205023,0.64265 5.021048,-1.38275 2.487824,-0.99695 7.594528,-1.19073 4.02921,-0.71266 3.4578,-0.77101 7.65383,-0.84569 1.34703,-0.024 2.69524,0.10535 4.04141,0.0515 1.31742,-0.0527 2.6266,-0.23443 3.938,-0.37079 1.32818,-0.13809 2.64526,-0.42848 3.98039,-0.45251 1.39228,-0.0251 2.77753,0.20393 4.1663,0.30589 0.69528,0.11677 8.20304,1.40613 8.82369,1.39298 1.55371,-0.0329 3.02797,-0.85624 4.58202,-0.86076 1.44068,-0.004 2.8086,0.67736 4.24062,0.83513 0.7975,0.0879 6.74161,0.0722 7.66501,0.0729 1.08874,-0.20106 2.15908,-0.60009 3.26623,-0.60318 0.97257,-0.003 1.89256,0.47062 2.85825,0.58613 0.8036,0.0961 1.61871,0.018 2.42756,0.0462 0.83959,0.0292 1.68154,0.0392 2.51715,0.12586 2.6614,0.45514 1.3327,0.28514 3.9855,0.51462 0.59365,0.10838 1.18731,0.21675 1.78096,0.32512 0.60516,0.19759 1.19022,0.47307 1.81547,0.59276 2.88807,0.55287 1.45681,-0.59707 4.397,1.29523 2.56301,1.64955 2.52122,2.02535 4.29965,4.39753 0.54291,0.86279 1.0634,1.74009 1.62872,2.58836 0.45606,0.68436 1.07826,1.26615 1.43412,2.00757 0.22313,0.46488 0.1569,1.01977 0.26131,1.52475 0.12703,0.61431 0.39852,1.20514 0.43267,1.83151 0.19417,3.56185 -0.95601,0.14488 0.46078,3.42765 -0.0577,0.62658 -0.11543,1.25317 -0.17315,1.87975 0.0173,0.73004 0.11732,1.46281 0.052,2.19012 -0.0587,0.65313 -0.44141,1.26614 -0.42152,1.92161 0.0241,0.79386 0.44635,1.53088 0.55022,2.31829 0.31962,2.42302 0.0481,2.57682 -0.52452,4.94073 0.13709,1.25058 0.46531,4.06093 0.52896,5.34757 0.0389,0.78668 0.16359,1.58887 0.0176,2.36287 -0.24591,1.30363 -0.60448,2.60568 -1.18028,3.80084 -0.38245,0.79382 -3.35264,4.69104 -4.00316,5.55828 -3.94299,4.4224 -0.20535,-0.18492 -3.30308,5.00593 -0.57432,0.96237 -2.63835,3.60396 -3.6258,4.27837 -9.4768,6.47247 3.16191,-3.68934 -5.01609,3.0934 -0.67631,0.34443 -1.36533,0.66497 -2.02893,1.03328 -0.7582,0.4208 -1.42799,1.01321 -2.23411,1.33276 -3.76291,1.49169 -1.90915,-0.17506 -5.70066,1.41307 -0.95775,0.40116 -1.77726,1.07485 -2.68052,1.58705 -0.85092,0.48252 -1.72068,0.93102 -2.58103,1.39653 -4.69448,1.43331 -0.9689,0.14183 -5.43582,2.11939 -0.87125,0.38572 -1.7524,0.75151 -2.64883,1.07442 -0.81569,0.29383 -1.6912,0.42121 -2.48309,0.77419 -4.73513,2.11066 0.40225,0.79617 -4.70087,1.81569 -0.65157,0.0997 -1.29828,0.35902 -1.95472,0.2992 -0.78133,-0.0712 -1.46829,-0.70475 -2.25255,-0.68262 -0.69573,0.0196 -1.25927,0.6092 -1.92844,0.80062 -0.59629,0.17058 -1.22964,0.16644 -1.83985,0.27736 -3.418,0.62129 0.0886,0.13915 -3.11861,0.53897 -3.51191,0.80394 -0.26306,0.33945 -3.17849,0.0928 -2.2688,-0.19191 0.0972,0.61776 -2.60066,-0.0807 -4.88469,-1.26454 0.57413,-0.30404 -3.65342,-0.96724 -0.5254,0.14262 -1.05079,0.28524 -1.57619,0.42786 -15.758123,-3.78641 -10.40332,-26.07176 5.3548,-22.28535 v 0 c 0.36443,0.0969 0.72886,0.19372 1.0933,0.29058 0.26879,-0.0518 0.53758,-0.10355 0.80637,-0.15532 0.0698,0.0356 0.13119,0.1108 0.20944,0.10678 1.00726,-0.0517 0.74504,-0.46017 1.95983,-0.0492 0.3572,0.12084 0.58584,0.51544 0.94958,0.61485 0.20663,0.0565 0.40979,-0.12492 0.61468,-0.18738 0.6751,0.0815 1.63176,0.136 2.24757,0.46996 0.49259,0.26715 0.78101,1.01003 1.34137,1.01336 0.56421,0.003 0.80389,-0.97517 1.36767,-0.99728 0.63818,-0.025 1.13572,0.58457 1.70358,0.87685 0.59266,-0.11179 1.18532,-0.22358 1.77797,-0.33537 0.38838,-0.22157 0.71807,-0.67254 1.16513,-0.6647 1.03232,0.0181 2.82567,1.62741 3.86784,1.44438 0.73541,-0.12915 1.03534,-1.17665 1.74732,-1.40157 8.17423,-2.58232 -2.9599,3.10627 4.82753,-1.21602 2.05808,-0.58508 2.54886,-0.47321 4.15251,-1.79745 1.14826,-0.94819 2.0563,-2.38294 3.32237,-3.21139 3.38792,-2.21687 0.50305,0.99375 3.12763,-2.45721 0.60027,0.0272 1.26333,0.35033 1.80081,0.0817 0.40456,-0.20222 0.25545,-0.89051 0.53252,-1.24801 0.30514,-0.39371 0.75429,-0.6535 1.16247,-0.939 0.4225,-0.29552 0.90156,-0.50416 1.32381,-0.80004 1.53118,-1.07292 1.2148,-0.92235 2.26955,-2.50684 0.14482,-0.50538 0.28965,-1.01076 0.43447,-1.51614 0.19156,-0.1971 0.488,-0.33048 0.57468,-0.59131 0.0418,-0.12582 -0.35216,-0.16078 -0.28646,-0.27594 0.27892,-0.48887 1.05679,-0.68164 1.14953,-1.23677 0.0892,-0.53412 -0.82431,-0.94051 -0.69782,-1.46704 0.15612,-0.64992 0.93067,-0.95965 1.39601,-1.43947 -0.32518,-0.62618 -0.76499,-1.2051 -0.97555,-1.87853 -0.18776,-0.60052 -0.11644,-1.25329 -0.1987,-1.87708 -0.0807,-0.6122 -0.10949,-1.23913 -0.29008,-1.82963 -0.19881,-0.65002 -0.59689,-1.22355 -0.83808,-1.85907 -0.38013,-1.00162 -0.32203,-1.37475 -0.3923,-2.44322 -0.33064,-0.28646 -0.66127,-0.57293 -0.9919,-0.85939 0.0125,-0.28154 0.2137,-0.62469 0.0375,-0.84461 -0.18492,-0.23076 -0.64585,0.007 -0.86656,-0.19001 -0.14355,-0.12801 -0.0668,-0.39913 0.006,-0.57698 0.1844,-0.44784 -0.32864,3.48732 0.95918,1.09134 0.20358,0.22834 0.3542,0.51837 0.61074,0.68502 0.41096,0.26696 1.39686,0.60098 1.45481,-0.39996 0.0107,-0.18518 -0.35523,-0.12526 -0.5406,-0.13188 -0.3363,-0.012 -0.7191,0.25146 -1.00663,0.0766 -0.49456,-0.30074 -0.72675,-0.90109 -1.09012,-1.35163 -0.47833,-0.21904 -1.01311,-0.34281 -1.435,-0.65713 -0.59847,-0.4459 -0.89019,-1.29922 -1.57839,-1.58797 -0.6501,-0.27276 -1.42986,0.20607 -2.11466,0.0385 -0.81915,-0.20047 -1.51906,-0.73313 -2.27243,-1.11211 -1.86768,-0.93954 -2.70041,-1.41416 -4.6022,-2.44822 -0.89949,-0.34752 -1.82991,-0.62369 -2.69848,-1.04256 -1.0755,-0.51867 -1.98289,-1.39346 -3.11841,-1.76267 -1.23274,-0.40083 -2.56566,-0.37992 -3.85588,-0.50503 -1.38418,-0.13424 -2.77261,-0.25047 -4.16312,-0.27262 -2.81548,-0.0449 -5.62828,0.3783 -8.44674,0.11506 -1.33313,0.0756 -2.66625,0.15118 -3.99938,0.22677 -1.2478,0.16849 -2.48789,0.41026 -3.74342,0.5055 -1.22567,0.093 -2.45799,0.0451 -3.68711,0.0581 -1.26379,0.0134 -6.3283,-0.005 -7.57663,0.14173 -1.29496,0.15165 -2.55607,0.51594 -3.83411,0.77391 -1.28647,-0.007 -2.57298,-0.01 -3.8594,-0.0225 -1.4098,-0.0142 -2.820397,-0.11398 -4.229186,-0.0589 -9.308801,0.36382 0.856329,0.22832 -7.818184,1.16722 -9.435219,1.02123 2.273755,-1.28941 -7.284222,0.8185 -4.123071,0.0853 -3.963951,-0.13725 -7.996587,0.82309 -1.310942,0.31219 -2.65321,0.57558 -3.882017,1.12881 -1.208632,0.54415 -2.154862,1.57326 -3.357488,2.13056 -8.997781,4.16958 2.436265,-2.34297 -4.393666,1.6831 -0.76636,0.37739 -2.95748,1.49283 -3.780975,1.75323 -0.665591,0.21047 -1.40303,0.16269 -2.051391,0.42141 -0.652055,0.26021 -1.139563,0.84498 -1.789195,1.11118 -1.36794,0.56054 -2.945098,0.49002 -4.256659,1.24502 -0.640471,0.31196 -1.36676,0.4888 -1.921414,0.93589 -0.02506,0.0202 -2.401218,3.17121 -2.411556,3.1834 -0.337563,0.39812 -0.843274,0.66162 -1.096192,1.11823 -0.38108,0.68797 -0.860838,3.96136 -0.92706,4.34347 -13.735456,10.68313 -28.843684,-8.74174 -15.10823,-19.42487 z"
           inkscape:connector-curvature="0" />
      </g>
      <path
         inkscape:connector-curvature="0"
         d="m 114.92268,161.55927 c 0.74997,2.34466 0.58179,2.32042 1.89163,4.41914 0.54857,0.87895 1.40834,1.58662 1.76239,2.56034 0.39031,1.07345 0.11557,2.29777 0.40573,3.40251 0.28239,1.07512 0.89202,2.03708 1.29511,3.07301 0.42264,1.08619 0.78744,2.19401 1.18116,3.29101 0.47807,2.64292 0.23596,5.34142 0.53094,7.99643 0.14885,1.33981 0.54871,2.64305 0.70877,3.98157 0.49592,4.1472 -0.10375,3.91033 0.82233,7.99374 0.27672,1.22019 0.75743,2.38498 1.13615,3.57747 -0.38285,10.35952 -0.24263,-2.91065 0.77597,7.24763 0.12244,1.22111 -0.30821,2.45569 -0.18719,3.67695 0.39381,3.97395 1.33177,2.52724 1.84488,6.48458 0.14219,1.09659 -0.0811,2.21004 -0.12168,3.31506 2.78901,5.29923 0.77993,0.42393 1.58302,5.95822 0.15238,1.05005 0.64436,2.02789 0.83508,3.07167 0.17581,0.96224 0.002,1.97961 0.26021,2.92295 1.95455,7.12718 0.8711,-1.56206 1.47545,5.01274 -0.0452,0.85589 -0.29628,2.86032 0.20781,3.71122 0.39409,0.66522 1.34105,0.90177 1.68478,1.59435 0.21053,0.42419 -0.15593,0.93529 -0.19508,1.40723 -0.12164,1.46651 -0.15206,1.00116 0.71076,2.18775 -0.39029,0.51854 -1.08474,0.91237 -1.17086,1.55564 -0.59009,4.40723 2.77635,-0.87313 0.61747,4.56945 -0.394,0.99327 -1.31356,1.6858 -1.96481,2.53297 -1.88148,2.44751 -0.80261,1.4912 -2.81415,2.90865 -0.90843,1.25204 -2.17552,3.19849 -3.50422,3.95858 -0.87236,0.49905 -1.9662,0.43239 -2.9223,0.74213 -0.81817,0.26505 -1.58714,0.66333 -2.38753,0.97802 -0.87127,0.34255 -1.81487,0.52774 -2.62698,0.99351 -0.8626,0.49473 -1.55826,1.2358 -2.3374,1.8537 -2.18196,0.45969 -3.99035,1.81366 -6.04191,2.5795 -1.07055,0.39964 -2.17306,0.7412 -3.30076,0.92583 -1.12976,0.18498 -2.29093,0.0605 -3.42987,0.17618 -5.385221,0.54689 -1.32081,0.7569 -6.406764,0.1499 -4.692285,-0.25659 -1.569887,-0.045 -6.514656,-0.49177 -1.27772,-0.11545 -2.570056,-0.115 -3.83436,-0.33278 -1.516592,-0.26124 -2.96531,-0.85014 -4.483809,-1.10006 -12.433363,-2.04627 3.001547,1.45702 -9.261964,-1.51907 -2.809166,-0.46666 -5.638996,0.0987 -8.45076,-0.0735 -1.163807,-0.0712 -2.302187,-0.37323 -3.457665,-0.52941 -1.097124,-0.14828 -2.251355,-0.0261 -3.299045,-0.38384 -0.930679,-0.31783 -1.610341,-1.14059 -2.484461,-1.59125 -0.918205,-0.47338 -1.913395,-0.77954 -2.870094,-1.16932 -4.817642,-3.46099 -0.285189,0.33807 -3.636899,-4.17485 -0.435885,-0.5869 -1.25331,-0.83398 -1.643515,-1.45219 -0.331076,-0.52453 -0.08249,-1.29143 -0.417655,-1.81336 -2.350566,-2.12045 -1.368941,-0.91568 -2.960108,-3.60185 0.06166,-2.03085 -2.23165,-3.03096 -2.599947,-4.81846 -0.209431,-1.01647 0.445093,-2.03442 0.52202,-3.06938 0.06384,-0.85889 -0.376563,-1.76546 -0.101973,-2.58178 3.319833,-9.86945 1.0282,4.03918 2.33222,-5.98343 0.608497,-11.97094 17.537965,-11.11039 16.929465,0.86055 v 0 c 0.299003,0.76894 0.598006,1.53788 0.897007,2.30682 0.183165,0.67941 0.300534,1.38009 0.549492,2.03825 0.135535,0.35831 0.438491,0.63379 0.593719,0.98402 0.09988,0.22534 -0.120266,0.65417 -0.159128,0.85207 0.08299,0.75665 0.0042,0.99086 0.569952,1.63483 0.370734,0.42196 0.955032,0.65009 1.253897,1.12566 0.202147,0.32167 0.0722,1.49742 0.369293,1.64327 0.202083,0.0992 0.447878,-0.046 0.671819,-0.069 -0.04308,1.35816 -0.160957,0.43888 0.572384,1.8945 0.303355,0.60213 0.452826,1.29172 0.854138,1.83351 1.1899,1.60642 2.465168,2.06317 4.19277,2.99897 1.058328,0.57327 2.122951,1.13485 3.184425,1.70228 1.277159,0.40567 2.495116,1.1178 3.831479,1.21701 1.397944,0.10378 2.770957,-0.42691 4.158853,-0.62382 1.336405,-0.18959 2.710172,-0.18559 4.013782,-0.53564 1.255781,-0.3372 2.315456,-1.29099 3.597462,-1.50814 12.837396,-2.17446 -6.093401,3.25413 6.402052,-0.62417 0.942488,-9e-5 1.884976,-1.9e-4 2.827464,-2.6e-4 0.600813,-0.35215 1.117627,-0.92989 1.802437,-1.05643 0.524232,-0.0969 1.005233,0.46248 1.537833,0.4392 0.47118,-0.0206 0.85158,-0.41099 1.29799,-0.56313 5.42043,-1.84734 -2.755503,1.28478 3.35036,-1.1138 0.50689,-0.48998 1.0637,-0.93309 1.52066,-1.46994 0.45434,-0.53377 0.66676,-1.27202 1.20027,-1.72667 0.4647,-0.396 1.22082,-0.32665 1.68059,-0.72837 1.25031,-1.09244 -0.0385,-1.34749 0.85391,-2.3863 0.20932,-0.26615 0.73447,-0.47703 0.62796,-0.79844 -0.0997,-0.30098 -0.71296,-0.36508 -0.94025,-0.14401 -0.33862,0.32934 -0.30443,1.86764 -0.46353,2.3567 -0.044,0.13537 -0.20475,0.20049 -0.2849,0.31815 -0.0156,0.0229 0.0539,-0.0124 0.0809,-0.0187 0.20749,-0.28969 0.4671,-0.5484 0.62247,-0.86909 0.19961,-0.41203 0.48585,-1.96871 0.63571,-2.31571 0.23566,-0.54571 0.85043,-0.95424 0.88597,-1.5476 0.0372,-0.62166 -0.45952,-1.15768 -0.68929,-1.73652 0.13796,-0.67965 0.27592,-1.3593 0.41388,-2.03895 0.23142,-0.63765 0.46288,-1.27528 0.69426,-1.91293 0.55901,-1.54058 1.25877,-2.93697 1.06705,-4.65552 -0.10222,-0.91634 -0.58984,-1.74782 -0.8452,-2.63378 -1.10191,-3.82304 -0.89214,-2.24771 -0.17542,-6.37271 -0.22068,-1.0917 -0.56272,-2.16575 -0.66203,-3.2751 -0.2652,-2.96245 0.38303,-3.81831 0.32714,-6.81603 -0.0221,-1.1865 -0.26739,-2.35838 -0.38536,-3.53921 -0.51816,-5.18642 0.0222,-2.17787 -1.18158,-7.21581 -0.2104,-1.17035 -0.5234,-2.32682 -0.63121,-3.51103 -0.22996,-2.52593 0.3214,-4.60722 -0.3948,-7.10399 -0.30902,-1.07731 -1.08182,-1.96993 -1.49373,-3.01225 -1.82984,-4.63036 0.59823,-1.01883 -2.53194,-4.92706 -0.25221,-0.6711 -0.31746,-1.44663 -0.75662,-2.01331 -0.40478,-0.5223 -1.07416,-0.77533 -1.65239,-1.09517 -0.4714,-0.26075 -0.98575,-0.43521 -1.48411,-0.63975 -0.16141,-0.0662 -0.31982,-0.17527 -0.49427,-0.17225 -0.26081,0.005 -0.54684,0.041 -0.75813,0.19397 -0.300474,0.21752 -0.468174,0.57551 -0.702259,0.86327 -14.5776,-10.9332 0.884279,-31.54903 15.461879,-20.61583 z"
         id="path4892"
         style="fill:#000000;fill-opacity:1;stroke-width:0.26458332" />
    </g>
  </g>
</svg>
